<?xml version="1.0" encoding="UTF-8"?>
<svg version="1.1" xmlns="http://www.w3.org/2000/svg" width="429" height="429">
<path d="M0 0 C2.49605988 3.74408982 2.41042323 5.56082459 2 10 C-1.58729772 17.39941247 -7.24460506 23.70328472 -12.828125 29.671875 C-15.46067045 32.4938122 -17.93040223 35.43712663 -20.39453125 38.40625 C-22.13308768 40.13211623 -23.76424381 41.0300407 -26 42 C-26 42.66 -26 43.32 -26 44 C-28.1084009 45.83547845 -30.22124038 47.55343647 -32.4375 49.25 C-33.07840576 49.74580566 -33.71931152 50.24161133 -34.37963867 50.75244141 C-39.11809024 54.38988404 -43.91352187 57.86173896 -49 61 C-49.72445313 61.47308594 -50.44890625 61.94617188 -51.1953125 62.43359375 C-57.27010775 66.169487 -63.22210473 68.04764481 -70.3515625 66.484375 C-72.62176016 65.75104655 -74.79284267 64.90586913 -77 64 C-94.48196969 57.28974901 -112.21759669 51.5132092 -130.52832031 47.56469727 C-133.29216843 46.93324915 -136.02173312 46.20045085 -138.76171875 45.47265625 C-145.25016161 43.83879766 -151.72740384 43.00251443 -158.375 42.3125 C-159.56673828 42.18657471 -160.75847656 42.06064941 -161.98632812 41.9309082 C-196.16312133 38.47721885 -226.83464483 45.64746773 -256.29272461 63.07958984 C-258 64 -258 64 -261 65 C-261 65.66 -261 66.32 -261 67 C-262.6171875 68.375 -262.6171875 68.375 -264.875 70 C-290.14278788 89.29683957 -302.78580462 120.13364769 -307 151 C-308.15139581 165.74401395 -306.92580497 179.77802922 -303 194 C-302.50886719 195.90072266 -302.50886719 195.90072266 -302.0078125 197.83984375 C-297.24260249 214.13547069 -287.73734099 228.84717791 -276 241 C-275.52401367 241.50047852 -275.04802734 242.00095703 -274.55761719 242.51660156 C-251.55359046 266.31439697 -216.84132464 279.98240222 -183.953125 281.1328125 C-156.98518258 280.22677491 -132.81561426 270.47581125 -114 251 C-109.38477656 245.65424771 -105.26951907 240.26657821 -102 234 C-101.34 234 -100.68 234 -100 234 C-99.566875 232.576875 -99.566875 232.576875 -99.125 231.125 C-98 228 -98 228 -96 226 C-94.62860301 222.78488924 -93.59347328 219.44363722 -92.5 216.125 C-92.18466309 215.17206055 -91.86932617 214.21912109 -91.54443359 213.23730469 C-89.378585 206.53332467 -87.77674273 200.01287726 -87 193 C-86.80277344 191.93265625 -86.80277344 191.93265625 -86.6015625 190.84375 C-84.39667385 177.71241313 -88.64734151 164.24105422 -93 152 C-93.34675781 150.93910156 -93.69351562 149.87820312 -94.05078125 148.78515625 C-97.23841675 139.96409948 -102.72350043 133.77680026 -109 127 C-109.93199219 125.94619141 -109.93199219 125.94619141 -110.8828125 124.87109375 C-117.98189031 117.20614742 -127.60837924 112.31263225 -137 108 C-137.75410156 107.64035156 -138.50820313 107.28070313 -139.28515625 106.91015625 C-158.68753178 98.32646758 -180.16155004 99.46633147 -199.8671875 106.28515625 C-213.75310725 111.73925383 -225.03816479 121.53664016 -231.6875 135 C-239.42418859 153.57857872 -241.74146273 170.6141671 -233.90234375 189.66796875 C-228.42266675 200.46014617 -219.56717229 206.68894708 -208.30859375 210.38671875 C-196.4783292 213.52944554 -185.31350324 212.5188045 -174 208 C-173.01 207.34 -172.02 206.68 -171 206 C-170.01 206 -169.02 206 -168 206 C-167.34 204.68 -166.68 203.36 -166 202 C-165.34 202 -164.68 202 -164 202 C-157.67484978 189.60497467 -155.6831895 179.73191592 -159 166 C-160.18524649 162.82536873 -161.50759423 159.74861919 -162.8828125 156.65234375 C-164.90691349 151.84687321 -165.2318524 148.28572696 -164.3125 143.1875 C-163 140 -163 140 -161.375 138.5625 C-155.23451244 137.108174 -150.40422061 137.54615355 -144.94140625 140.625 C-136.3942684 146.67850608 -130.28979743 157.63067572 -128.24609375 167.828125 C-126.50107219 183.22863276 -130.01437791 201.06958826 -139.06640625 213.9375 C-139.70449219 214.618125 -140.34257812 215.29875 -141 216 C-141.66 216 -142.32 216 -143 216 C-143.38865234 216.88751953 -143.38865234 216.88751953 -143.78515625 217.79296875 C-149.21674088 227.66063858 -163.22289213 234.35933898 -173.3515625 237.9921875 C-191.18399585 242.91806309 -208.23670202 241.15849694 -224.71875 232.5859375 C-236.26883032 225.91968744 -248.16132719 216.68273272 -255 205 C-255 204.01 -255 203.02 -255 202 C-255.66 202 -256.32 202 -257 202 C-268.59623959 177.68655098 -272.39324385 157.26567918 -263.875 131.0625 C-260.95249799 123.18872546 -256.87331154 115.83604016 -252 109 C-251.34 109 -250.68 109 -250 109 C-249.6596875 108.1646875 -249.6596875 108.1646875 -249.3125 107.3125 C-246.49722016 102.35224505 -241.58695794 98.60512921 -237.4375 94.75 C-236.50808594 93.87859375 -235.57867187 93.0071875 -234.62109375 92.109375 C-232.2357553 90.18972856 -230.97948356 89.36454858 -228 89 C-228 88.34 -228 87.68 -228 87 C-203.47039927 72.43775865 -176.88201369 66.00136879 -148.40625 72.95703125 C-134.64714106 77.16996942 -121.68547004 82.6233419 -109.75 90.75 C-109.17612549 91.13905518 -108.60225098 91.52811035 -108.01098633 91.92895508 C-106.63375126 92.89782271 -105.31076087 93.94293479 -104 95 C-104 95.66 -104 96.32 -104 97 C-103.41863281 97.26554687 -102.83726562 97.53109375 -102.23828125 97.8046875 C-95.29945706 101.51023759 -89.89457629 107.9727086 -85 114 C-84.30003906 114.85078125 -83.60007812 115.7015625 -82.87890625 116.578125 C-63.56152604 141.08474947 -55.99826063 171.01368898 -59.5 201.9375 C-62.47384617 224.28872922 -70.71451885 246.39159171 -85 264 C-86.00238371 265.41498104 -87.00252815 266.83155213 -88 268.25 C-91.16670638 272.45230495 -94.97499296 275.6471004 -99 279 C-100.27093989 280.16655058 -101.54177278 281.33321775 -102.8125 282.5 C-119.12367069 296.63002577 -141.11913235 303.43489248 -162.40060425 304.55342102 C-163.57893225 304.6165717 -163.57893225 304.6165717 -164.78106487 304.68099815 C-172.71900697 305.078803 -180.64407232 305.14838406 -188.59033203 305.14526367 C-190.15681028 305.14826824 -191.7232878 305.15167365 -193.2897644 305.15544128 C-197.48906434 305.16415945 -201.68834381 305.16661434 -205.88765192 305.16725707 C-208.53163894 305.16797522 -211.17562101 305.17012386 -213.81960678 305.17275429 C-223.10256013 305.18197155 -232.38549926 305.18609425 -241.66845703 305.18530273 C-250.22399923 305.18470479 -258.77947782 305.19521009 -267.33500397 305.2110464 C-274.75661541 305.2242777 -282.17820647 305.22948013 -289.59982955 305.22884732 C-293.99813643 305.22859661 -298.39638678 305.23120347 -302.79468155 305.24202538 C-319.78831507 305.28072701 -336.74111978 305.15364811 -353.71044922 304.1730957 C-354.99716585 304.10389766 -356.28388248 304.03469961 -357.60959053 303.96340466 C-370.46977457 303.11762955 -380.55873276 301.10191004 -389.4375 291.3125 C-393.10976694 285.87754493 -393.07107736 279.30314478 -392 273 C-390.15444895 266.42188438 -387.59111824 260.0805866 -385.07104492 253.73754883 C-383.60642965 249.99404961 -382.24798892 246.21476361 -380.88427734 242.43359375 C-379.86367243 239.62481689 -378.78428027 236.84233945 -377.6875 234.0625 C-375.26776028 227.81089282 -373.06618647 221.49549937 -370.87670898 215.16088867 C-368.10167401 207.18350257 -365.13179603 199.2835257 -362.10839844 191.3972168 C-360.06512734 186.02381554 -358.24427173 180.65033559 -356.63916016 175.13037109 C-355.91830928 172.7277184 -355.04684593 170.4316647 -354.0625 168.125 C-352.19822418 163.59544771 -350.62727215 159.00872385 -349.125 154.34765625 C-348.16279466 151.48442716 -347.14903519 148.65202647 -346.109375 145.81640625 C-344.73407526 142.05752902 -343.40908244 138.28843181 -342.140625 134.4921875 C-336.5682866 117.87600926 -330.0246519 102.78559963 -320.5625 88 C-320.18029297 87.39671875 -319.79808594 86.7934375 -319.40429688 86.171875 C-317.11960216 82.60325168 -314.68262527 79.28764288 -312 76 C-311.360625 75.01 -310.72125 74.02 -310.0625 73 C-307.96263094 69.945645 -305.64842045 67.58051223 -303 65 C-302.443125 64.236875 -301.88625 63.47375 -301.3125 62.6875 C-300.879375 62.130625 -300.44625 61.57375 -300 61 C-299.34 61 -298.68 61 -298 61 C-297.67 60.01 -297.34 59.02 -297 58 C-295.22265625 56.17578125 -295.22265625 56.17578125 -293.0625 54.3125 C-292.35222656 53.68988281 -291.64195312 53.06726563 -290.91015625 52.42578125 C-289 51 -289 51 -287 51 C-286.67 50.01 -286.34 49.02 -286 48 C-282.8667798 45.39543012 -279.39871357 43.24259379 -276 41 C-275.15953125 40.42894531 -274.3190625 39.85789063 -273.453125 39.26953125 C-239.46524848 16.76543725 -200.38149517 12.22205556 -160.625 16.6875 C-159.81150085 16.77647552 -158.99800171 16.86545105 -158.15985107 16.9571228 C-136.04391636 19.38932169 -114.58973713 22.87612802 -93.27734375 29.4140625 C-81.61216478 32.97732039 -68.5504568 36.78021405 -56.88671875 31.16015625 C-53.26722805 28.93450669 -49.91099241 26.33720206 -46.55078125 23.7421875 C-44.23818392 22.16267998 -42.72885812 21.42179072 -40 21 C-40 20.34 -40 19.68 -40 19 C-38.05017465 17.59431196 -36.04049422 16.2704964 -34 15 C-33.113125 14.4225 -32.22625 13.845 -31.3125 13.25 C-29 12 -29 12 -26 12 C-26 11.34 -26 10.68 -26 10 C-20.58823529 6 -20.58823529 6 -18 6 C-18 5.34 -18 4.68 -18 4 C-6.26499042 -2.13276269 -6.26499042 -2.13276269 0 0 Z M-336 212 C-346.93978191 224.6671159 -361.76228655 251.93671201 -360.89697266 269.03588867 C-360.66633425 270.70149549 -360.34294895 272.35384504 -360 274 C-358.04223886 274.31606489 -356.08375094 274.62762832 -354.125 274.9375 C-353.03445313 275.11152344 -351.94390625 275.28554688 -350.8203125 275.46484375 C-349.55960937 275.64144531 -348.29890625 275.81804687 -347 276 C-346.3407251 276.09410156 -345.6814502 276.18820312 -345.00219727 276.28515625 C-336.79289231 277.28705464 -328.54115259 277.15074333 -320.28491211 277.13037109 C-317.67621139 277.12497666 -315.0676801 277.13036025 -312.45898438 277.13671875 C-310.78906212 277.13605851 -309.11913998 277.13477846 -307.44921875 277.1328125 C-306.67519211 277.13483673 -305.90116547 277.13686096 -305.10368347 277.13894653 C-301.27820312 277.12238567 -297.71870491 276.92725909 -294 276 C-294.61355031 272.0355211 -296.59856266 269.4475346 -298.9375 266.25 C-299.64777344 265.26515625 -300.35804688 264.2803125 -301.08984375 263.265625 C-301.72019531 262.51796875 -302.35054687 261.7703125 -303 261 C-303.66 261 -304.32 261 -305 261 C-305.25265625 260.28199219 -305.5053125 259.56398438 -305.765625 258.82421875 C-307.10096017 255.7690057 -308.73082536 253.46168843 -310.75 250.8125 C-313.9125927 246.55210084 -316.76275285 242.25130727 -319.4296875 237.66796875 C-321.26494862 234.54985098 -323.19753098 231.4994019 -325.125 228.4375 C-327.91408223 223.94840574 -330.26181404 219.55866296 -332.11328125 214.609375 C-332.96380531 212.6352271 -332.96380531 212.6352271 -336 212 Z " fill="#FDFDFD" transform="translate(409,56)"/>
<path d="M0 0 C0.66 0.33 1.32 0.66 2 1 C1.25 5.75 1.25 5.75 -1 8 C-1.103125 8.804375 -1.20625 9.60875 -1.3125 10.4375 C-2 13 -2 13 -4.4375 14.5625 C-5.283125 15.036875 -6.12875 15.51125 -7 16 C-8.16666667 17.91666667 -8.16666667 17.91666667 -9 20 C-9.98028616 21.34789347 -10.97971135 22.68212715 -12 24 C-12.66 24.99 -13.32 25.98 -14 27 C-15.32 27 -16.64 27 -18 27 C-18.33 27.99 -18.66 28.98 -19 30 C-19.66 29.67 -20.32 29.34 -21 29 C-20.40832031 28.28714844 -19.81664062 27.57429688 -19.20703125 26.83984375 C-11.42924639 18.131693 -11.42924639 18.131693 -6 8 C-5.34 8 -4.68 8 -4 8 C-3.71125 7.05125 -3.4225 6.1025 -3.125 5.125 C-2 2 -2 2 0 0 Z M-21 30 C-21 30.66 -21 31.32 -21 32 C-21.66 32 -22.32 32 -23 32 C-23 32.66 -23 33.32 -23 34 C-23.66 34 -24.32 34 -25 34 C-25 35.32 -25 36.64 -25 38 C-26.175625 38.12375 -26.175625 38.12375 -27.375 38.25 C-28.24125 38.4975 -29.1075 38.745 -30 39 C-30.29003906 39.64195312 -30.58007812 40.28390625 -30.87890625 40.9453125 C-32 43 -32 43 -34.12890625 43.9765625 C-34.93199219 44.19054687 -35.73507812 44.40453125 -36.5625 44.625 C-38.94743766 45.2402695 -38.94743766 45.2402695 -41 46 C-41.33 46.66 -41.66 47.32 -42 48 C-42.66 48 -43.32 48 -44 48 C-43.5625 45.8125 -43.5625 45.8125 -42 43 C-39.93450187 41.65313251 -37.79002998 40.58132391 -35.58984375 39.46875 C-31.72030442 37.27426012 -28.45304807 34.4414695 -25.06640625 31.57421875 C-23 30 -23 30 -21 30 Z " fill="#F5F4F5" transform="translate(313,282)"/>
<path d="M0 0 C0.66 0.33 1.32 0.66 2 1 C0.37571811 8.68562649 -1.41299032 16.47683043 -6 23 C-7.33179607 23.66973238 -8.66507812 24.33651994 -10 25 C-10.70802056 26.31184187 -11.37321373 27.6474612 -12 29 C-17.90966784 35.35400377 -28.77940451 44.71724566 -37.75 45.125 C-38.4925 45.08375 -39.235 45.0425 -40 45 C-39.34 43.68 -38.68 42.36 -38 41 C-37.34 41.33 -36.68 41.66 -36 42 C-31.98046785 40.39218714 -27.96766636 37.93533273 -26 34 C-24.68 34 -23.36 34 -22 34 C-20.62926214 32.36395804 -19.29944744 30.69321939 -18 29 C-17.154375 28.505 -16.30875 28.01 -15.4375 27.5 C-11.64282091 25.16481287 -10.3771389 22.1314167 -9 18 C-8.34 18 -7.68 18 -7 18 C-4.37747452 12.09931767 -2.16646423 6.08149603 0 0 Z " fill="#F7F5F5" transform="translate(276,247)"/>
<path d="M0 0 C2 1 2 1 2 1 Z M0 1 C-1.48302402 5.44907205 -5.08285501 7.74579392 -9 10 C-9.66 10 -10.32 10 -11 10 C-11.12181641 10.93585938 -11.12181641 10.93585938 -11.24609375 11.890625 C-12 14 -12 14 -13.84765625 15.046875 C-14.94400391 15.39492187 -14.94400391 15.39492187 -16.0625 15.75 C-17.16271484 16.11351563 -17.16271484 16.11351563 -18.28515625 16.484375 C-19.13400391 16.73960938 -19.13400391 16.73960938 -20 17 C-18.86280581 13.58841744 -17.95657056 12.88145399 -15 11 C-14.34 11 -13.68 11 -13 11 C-12.67 10.01 -12.34 9.02 -12 8 C-9.78515625 6.17578125 -9.78515625 6.17578125 -7.0625 4.3125 C-6.16660156 3.68988281 -5.27070313 3.06726563 -4.34765625 2.42578125 C-2 1 -2 1 0 1 Z M-21 17 C-20.67 17.66 -20.34 18.32 -20 19 C-21.29015746 20.62619848 -22.58217697 22.25091983 -23.875 23.875 C-24.59429687 24.77992187 -25.31359375 25.68484375 -26.0546875 26.6171875 C-27.74312262 28.685351 -29.46877699 30.5149703 -31.4375 32.3125 C-33.13292707 34.02786711 -33.13292707 34.02786711 -34.5 36.5 C-36 39 -36 39 -37.625 40.5625 C-39.18219591 41.92629028 -39.18219591 41.92629028 -39.375 44.0625 C-39.58125 44.701875 -39.7875 45.34125 -40 46 C-42.5625 47.25 -42.5625 47.25 -45 48 C-44.39258272 44.70677379 -43.25883043 42.73644951 -41.1875 40.125 C-39.31568497 37.72283738 -37.59596246 35.37557835 -35.9375 32.8125 C-33.88733571 29.83645507 -31.58336349 27.5171234 -29 25 C-28.443125 24.236875 -27.88625 23.47375 -27.3125 22.6875 C-26.6628125 21.8521875 -26.6628125 21.8521875 -26 21 C-25.34 21 -24.68 21 -24 21 C-23.67 20.01 -23.34 19.02 -23 18 C-22.34 17.67 -21.68 17.34 -21 17 Z " fill="#F7F6F6" transform="translate(135,96)"/>
<path d="M0 0 C0.33 0 0.66 0 1 0 C0.50824971 5.40925319 -0.95868057 9.41127406 -3.5625 14.1875 C-10.83294113 28.18546509 -16.71984188 42.3239129 -19 58 C-20.55078125 56.91796875 -20.55078125 56.91796875 -22 55 C-21.85546875 51.86328125 -21.85546875 51.86328125 -21.1875 48.3125 C-20.97480469 47.13300781 -20.76210938 45.95351563 -20.54296875 44.73828125 C-20.36378906 43.83464844 -20.18460938 42.93101562 -20 42 C-19.34 42 -18.68 42 -18 42 C-16.43098141 35.01466204 -16.43098141 35.01466204 -15 28 C-14.34 28 -13.68 28 -13 28 C-12.88527344 27.46761719 -12.77054688 26.93523437 -12.65234375 26.38671875 C-11.8420012 23.42193253 -10.72951156 20.65557565 -9.5625 17.8125 C-9.13066406 16.74644531 -8.69882812 15.68039062 -8.25390625 14.58203125 C-7 12 -7 12 -5 11 C-4.87625 10.278125 -4.7525 9.55625 -4.625 8.8125 C-3.83083719 5.23876738 -2.16962579 2.91543466 0 0 Z " fill="#F6F5F4" transform="translate(67,272)"/>
<path d="M0 0 C0.33 0 0.66 0 1 0 C2.1195798 5.90323894 2.21962153 8.71062177 -1 14 C-1.515625 15.093125 -2.03125 16.18625 -2.5625 17.3125 C-4 20 -4 20 -6 21 C-6.2475 21.639375 -6.495 22.27875 -6.75 22.9375 C-8.56148302 25.92644698 -10.7140101 26.03353238 -14 27 C-14.825 27.515625 -15.65 28.03125 -16.5 28.5625 C-19.35131786 30.20200777 -21.75516724 30.62269387 -25 31 C-25 31.66 -25 32.32 -25 33 C-29.65537393 33.83796731 -33.37078475 34.0161692 -38 33 C-34.12445623 30.41630415 -30.09001783 29.64746028 -25.625 28.58789062 C-21.59304771 27.57990255 -18.51188101 26.1778626 -15 24 C-14.01 24 -13.02 24 -12 24 C-11.34 22.68 -10.68 21.36 -10 20 C-9.34 20 -8.68 20 -8 20 C-6.31084731 16.73168595 -4.85830746 13.39297304 -3.4375 10 C-3.00308594 8.96875 -2.56867188 7.9375 -2.12109375 6.875 C-1.22327202 4.57257216 -0.51545789 2.40933124 0 0 Z " fill="#F6F5F5" transform="translate(253,238)"/>
<path d="M0 0 C0.99 0 1.98 0 3 0 C2.40586541 4.32684973 1.32826248 8.05947576 -0.25 12.125 C-2.46875166 18.1749682 -4.20056305 24.24617953 -5.75 30.5 C-5.96043945 31.34836426 -6.17087891 32.19672852 -6.38769531 33.07080078 C-7.42846641 37.3624911 -8.34710477 41.62844065 -9 46 C-9.66 46 -10.32 46 -11 46 C-11.33 46.66 -11.66 47.32 -12 48 C-11.97371904 38.23662429 -10.78890853 29.96400466 -7.17138672 20.84985352 C-5.45503886 16.51794307 -4.48309132 12.64371535 -4 8 C-3.34 8 -2.68 8 -2 8 C-2 6.68 -2 5.36 -2 4 C-1.34 3.34 -0.68 2.68 0 2 C0 1.34 0 0.68 0 0 Z " fill="#F6F5F4" transform="translate(111,161)"/>
<path d="M0 0 C0.66 0 1.32 0 2 0 C1.93941406 0.55945313 1.87882813 1.11890625 1.81640625 1.6953125 C1.52727051 4.46211913 1.26030777 7.23032533 1 10 C0.89300781 11.13179687 0.78601563 12.26359375 0.67578125 13.4296875 C-0.27381412 24.70150784 0.52521849 33.38053861 4.16015625 44.1171875 C5 47 5 47 5 51 C4.34 51 3.68 51 3 51 C-3.92932937 33.91213922 -4.5390089 17.77778486 0 0 Z " fill="#F4F2F2" transform="translate(143,194)"/>
<path d="M0 0 C0.495 0.99 0.495 0.99 1 2 C-5 5 -5 5 -6.9375 5.9375 C-10.01715246 7.52398763 -12.99939228 9.26888016 -16 11 C-16 11.66 -16 12.32 -16 13 C-16.73863281 13.24492187 -17.47726563 13.48984375 -18.23828125 13.7421875 C-21.29920083 15.13626968 -22.91367892 16.67085655 -25.1875 19.125 C-26.42193947 20.45149136 -27.68577887 21.75250533 -29 23 C-29.66 23 -30.32 23 -31 23 C-32.4606285 25.64738916 -33 26.89448334 -33 30 C-34.32 30 -35.64 30 -37 30 C-36.52219508 25.69975573 -34.06572482 23.86578624 -31 21 C-29.87425618 19.83405104 -28.74929687 18.66734427 -27.625 17.5 C-24.32273025 14.19773025 -20.92210215 11.5378308 -17 9 C-16.34 9 -15.68 9 -15 9 C-15 8.34 -15 7.68 -15 7 C-12.98828125 5.52734375 -12.98828125 5.52734375 -10.3125 3.9375 C-9.44238281 3.41027344 -8.57226562 2.88304687 -7.67578125 2.33984375 C-5.0656694 1.03288263 -2.87390743 0.41943514 0 0 Z " fill="#F6F5F5" transform="translate(196,136)"/>
<path d="M0 0 C0.33 0 0.66 0 1 0 C0.95359375 1.26972656 0.9071875 2.53945312 0.859375 3.84765625 C0.61140753 13.74126894 1.04757819 22.37331282 4.02734375 31.8359375 C4.9660712 34.88962921 5.54675884 37.84162478 6 41 C0.34440748 37.26971557 0.34440748 37.26971557 -0.5859375 33.83984375 C-0.73272099 32.32392457 -0.83826126 30.80321913 -0.89453125 29.28125 C-0.93366286 26.99324531 -0.93366286 26.99324531 -1.5 24.78515625 C-2.20976914 20.83152036 -2.18426452 16.94625912 -2.1875 12.9375 C-2.19974609 12.13505859 -2.21199219 11.33261719 -2.22460938 10.50585938 C-2.24262182 3.2708595 -2.24262182 3.2708595 0 0 Z " fill="#F7F6F5" transform="translate(169,208)"/>
<path d="M0 0 C2.95653744 1.3726781 5.5649856 2.81688364 8 5 C8.34281457 6.33092714 8.67449897 7.664733 9 9 C9.75663704 10.600369 10.55155473 12.1829587 11.375 13.75 C17 24.80434783 17 24.80434783 17 31 C17.99 31.33 18.98 31.66 20 32 C19.34 32.99 18.68 33.98 18 35 C17.34 35 16.68 35 16 35 C15.80889648 34.42556152 15.61779297 33.85112305 15.42089844 33.25927734 C14.53974784 30.62801957 13.64500814 28.00157491 12.75 25.375 C12.29947266 24.01955078 12.29947266 24.01955078 11.83984375 22.63671875 C10.09948653 17.5637626 8.24793604 13.33494689 5 9 C4.51015625 8.32453125 4.0203125 7.6490625 3.515625 6.953125 C3.09796875 6.39109375 2.6803125 5.8290625 2.25 5.25 C0 2 0 2 0 0 Z " fill="#F4F3F3" transform="translate(304,185)"/>
<path d="M0 0 C2.69109792 4.03664687 3.12835112 6.97722589 3.09765625 11.765625 C3.09443359 12.65507812 3.09121094 13.54453125 3.08789062 14.4609375 C3.07951172 15.38132813 3.07113281 16.30171875 3.0625 17.25 C3.05798828 18.18585938 3.05347656 19.12171875 3.04882812 20.0859375 C3.03706918 22.39069041 3.02063426 24.69531227 3 27 C2.34 27 1.68 27 1 27 C1 29.64 1 32.28 1 35 C0.01 35.495 0.01 35.495 -1 36 C-1.07219884 32.46225699 -1.01924894 29.12993035 -0.5 25.625 C0.53078579 18.151803 -0.11385439 10.88675708 -0.87890625 3.40625 C-0.91886719 2.6121875 -0.95882813 1.818125 -1 1 C-0.67 0.67 -0.34 0.34 0 0 Z " fill="#F6F5F4" transform="translate(347,226)"/>
<path d="M0 0 C0.33 0 0.66 0 1 0 C1.45546359 7.36332797 1.10557079 13.10629937 -2.02734375 19.84375 C-2.95084156 21.89102225 -3.52717713 23.81008357 -4 26 C-4.66 26 -5.32 26 -6 26 C-5.67 26.99 -5.34 27.98 -5 29 C-6.32 29.99 -7.64 30.98 -9 32 C-8.66453354 27.19164742 -7.41832288 23.29311453 -5.625 18.8125 C-3.15640643 12.64459375 -1.43589701 6.4790475 0 0 Z " fill="#F4F2F2" transform="translate(323,250)"/>
<path d="M0 0 C2.97 0.495 2.97 0.495 6 1 C4.65945761 3.68108478 3.44229197 3.78953853 0.66796875 4.83984375 C-0.21310547 5.18080078 -1.09417969 5.52175781 -2.00195312 5.87304688 C-2.92943359 6.22431641 -3.85691406 6.57558594 -4.8125 6.9375 C-6.63372321 7.6283088 -8.45282472 8.32474275 -10.26953125 9.02734375 C-11.08010986 9.33406006 -11.89068848 9.64077637 -12.72583008 9.95678711 C-15.10221921 11.04689025 -16.93482814 12.41088072 -19 14 C-21.25 14.6875 -21.25 14.6875 -23 15 C-23 11 -23 11 -21.375 9.3125 C-19 8 -19 8 -16.28125 7.609375 C-12.52610476 6.91199088 -9.56414205 5.58688445 -6.125 3.9375 C-4.39636719 3.11572266 -4.39636719 3.11572266 -2.6328125 2.27734375 C-1.32957031 1.64505859 -1.32957031 1.64505859 0 1 C0 0.67 0 0.34 0 0 Z " fill="#F8F6F6" transform="translate(214,156)"/>
<path d="M0 0 C0.66 0 1.32 0 2 0 C4.94397288 7.7629761 5.34937193 14.74447081 5 23 C4.34 23 3.68 23 3 23 C3 24.65 3 26.3 3 28 C2.34 27.67 1.68 27.34 1 27 C1.03480469 25.75863281 1.06960938 24.51726562 1.10546875 23.23828125 C1.13361584 21.59636774 1.16091501 19.95443954 1.1875 18.3125 C1.21263672 17.49587891 1.23777344 16.67925781 1.26367188 15.83789062 C1.32217012 11.02153514 1.07302376 7.96024846 -2 4 C-1.34 3.67 -0.68 3.34 0 3 C0 2.01 0 1.02 0 0 Z " fill="#F6F5F5" transform="translate(276,216)"/>
<path d="M0 0 C0.54140625 0.37898438 1.0828125 0.75796875 1.640625 1.1484375 C1.310625 1.8084375 0.980625 2.4684375 0.640625 3.1484375 C-1.02604167 3.48177083 -2.69270833 3.81510417 -4.359375 4.1484375 C-4.689375 4.8084375 -5.019375 5.4684375 -5.359375 6.1484375 C-7.834375 5.6534375 -7.834375 5.6534375 -10.359375 5.1484375 C-10.359375 5.8084375 -10.359375 6.4684375 -10.359375 7.1484375 C-10.99875 7.4165625 -11.638125 7.6846875 -12.296875 7.9609375 C-14.69069186 9.03511502 -14.69069186 9.03511502 -15.359375 12.1484375 C-16.679375 12.1484375 -17.999375 12.1484375 -19.359375 12.1484375 C-21.1105323 13.5651122 -21.1105323 13.5651122 -22.359375 15.1484375 C-22.359375 12.1484375 -22.359375 12.1484375 -20.671875 10.0859375 C-18.29863722 8.09754909 -16.27877327 7.12157026 -13.359375 6.1484375 C-13.359375 5.4884375 -13.359375 4.8284375 -13.359375 4.1484375 C-11.61908198 3.25428695 -9.8666735 2.38368572 -8.109375 1.5234375 C-7.13484375 1.03617188 -6.1603125 0.54890625 -5.15625 0.046875 C-2.359375 -0.8515625 -2.359375 -0.8515625 0 0 Z " fill="#F7F5F5" transform="translate(404.359375,55.8515625)"/>
<path d="M0 0 C1.91015625 0.1328125 1.91015625 0.1328125 3.91015625 1.1328125 C3.91015625 1.7928125 3.91015625 2.4528125 3.91015625 3.1328125 C5.36421875 3.3184375 5.36421875 3.3184375 6.84765625 3.5078125 C9.84594757 3.94314723 12.81596715 4.46697327 15.78515625 5.0703125 C16.92597656 5.30041016 16.92597656 5.30041016 18.08984375 5.53515625 C18.69054687 5.73238281 19.29125 5.92960937 19.91015625 6.1328125 C20.24015625 6.7928125 20.57015625 7.4528125 20.91015625 8.1328125 C11.49409806 7.74848359 0.88365878 6.44848085 -7.08984375 1.1328125 C-5.19099279 -0.76603846 -2.51736472 0.00913744 0 0 Z " fill="#F7F6F5" transform="translate(278.08984375,98.8671875)"/>
<path d="M0 0 C0.82638376 2.89234315 1 4.88742431 1 8 C0.01 8 -0.98 8 -2 8 C-2 10.31 -2 12.62 -2 15 C-2.99 15.495 -2.99 15.495 -4 16 C-4.72159424 17.64363134 -5.39351421 19.31050386 -6 21 C-6.66 21 -7.32 21 -8 21 C-7.38872122 16.46692139 -6.2166879 12.51063826 -4.5625 8.25 C-4.13066406 7.12078125 -3.69882812 5.9915625 -3.25390625 4.828125 C-2 2 -2 2 0 0 Z " fill="#F6F4F4" transform="translate(47,251)"/>
<path d="M0 0 C0.66 0 1.32 0 2 0 C2.6875 2.1875 2.6875 2.1875 3 5 C2.04906703 6.69514137 1.04892238 8.36368108 0 10 C0 11.32 0 12.64 0 14 C-0.66 14.66 -1.32 15.32 -2 16 C-1.67 16.66 -1.34 17.32 -1 18 C-2.32 18.33 -3.64 18.66 -5 19 C-5.21153444 14.44859776 -4.56441073 10.97943707 -3.0625 6.6875 C-2.70285156 5.63949219 -2.34320313 4.59148437 -1.97265625 3.51171875 C-1 1 -1 1 0 0 Z " fill="#F5F4F4" transform="translate(54,228)"/>
<path d="M0 0 C0 3 0 3 -1.3293457 4.44213867 C-1.93866943 4.9291626 -2.54799316 5.41618652 -3.17578125 5.91796875 C-3.83900391 6.44970703 -4.50222656 6.98144531 -5.18554688 7.52929688 C-5.88744141 8.07650391 -6.58933594 8.62371094 -7.3125 9.1875 C-8.00279297 9.74630859 -8.69308594 10.30511719 -9.40429688 10.88085938 C-14.60980426 15 -14.60980426 15 -18 15 C-16.51218185 11.21282653 -14.38011591 9.22592999 -11 7 C-10.01 7.33 -9.02 7.66 -8 8 C-7.62875 6.5459375 -7.62875 6.5459375 -7.25 5.0625 C-6.8375 4.051875 -6.425 3.04125 -6 2 C-4 1.1875 -4 1.1875 -2 1 C-1.34 0.67 -0.68 0.34 0 0 Z " fill="#F8F6F5" transform="translate(379,100)"/>
<path d="M0 0 C-0.99 0.99 -1.98 1.98 -3 3 C-3.66 2.67 -4.32 2.34 -5 2 C-8.04134491 3.66924071 -8.04134491 3.66924071 -9 6 C-9.66 5.67 -10.32 5.34 -11 5 C-13.23601706 5.73288477 -15.44171775 6.55990615 -17.625 7.4375 C-18.81351563 7.91058594 -20.00203125 8.38367188 -21.2265625 8.87109375 C-22.59941406 9.42990234 -22.59941406 9.42990234 -24 10 C-23 7 -23 7 -19.76171875 5.2109375 C-18.40853074 4.58823151 -17.05017302 3.97666667 -15.6875 3.375 C-14.67139648 2.90707031 -14.67139648 2.90707031 -13.63476562 2.4296875 C-4.84467347 -1.55721647 -4.84467347 -1.55721647 0 0 Z " fill="#F7F5F6" transform="translate(170,81)"/>
<path d="M0 0 C0.99 0 1.98 0 3 0 C3.391875 0.928125 3.78375 1.85625 4.1875 2.8125 C6.37093881 7.91418875 8.69144901 12.95403678 11 18 C9.078125 17.69140625 9.078125 17.69140625 7 17 C5.75 13.9375 5.75 13.9375 5 11 C4.01 11 3.02 11 2 11 C1.34 9.68 0.68 8.36 0 7 C0.66 7 1.32 7 2 7 C1.34 4.69 0.68 2.38 0 0 Z " fill="#F7F5F5" transform="translate(106,259)"/>
<path d="M0 0 C0.99 0.33 1.98 0.66 3 1 C1.46203092 4.43453198 -0.5735602 7.14389276 -2.9375 10.0625 C-3.62714844 10.91972656 -4.31679687 11.77695313 -5.02734375 12.66015625 C-6.61614692 14.54469703 -8.22058755 16.29868089 -10 18 C-10.66 17.67 -11.32 17.34 -12 17 C-10.68 14.69 -9.36 12.38 -8 10 C-7.34 10 -6.68 10 -6 10 C-5.9175 9.21625 -5.835 8.4325 -5.75 7.625 C-5 5 -5 5 -3 3.875 C-2.34 3.58625 -1.68 3.2975 -1 3 C-0.67 2.01 -0.34 1.02 0 0 Z " fill="#F7F6F5" transform="translate(187,171)"/>
<path d="M0 0 C0.33 0.99 0.66 1.98 1 3 C-1.48740182 5.78992366 -4.24218857 7.44594313 -7.5 9.25 C-8.93859375 10.06210938 -8.93859375 10.06210938 -10.40625 10.890625 C-13 12 -13 12 -16 11 C-12.25 8 -12.25 8 -10 8 C-9.67 6.68 -9.34 5.36 -9 4 C-7.68 4.33 -6.36 4.66 -5 5 C-3.8509288 3.0745356 -3.8509288 3.0745356 -4 1 C-2 0 -2 0 0 0 Z " fill="#F6F5F4" transform="translate(169,105)"/>
<path d="M0 0 C0.33 0.99 0.66 1.98 1 3 C1.66 3 2.32 3 3 3 C3.53469802 4.72492978 4.05219175 6.455198 4.5625 8.1875 C4.85253906 9.15042969 5.14257812 10.11335937 5.44140625 11.10546875 C6.02461026 14.12752588 5.81178385 16.05929955 5 19 C2.4156782 16.4156782 1.89598837 14.10624423 0.8125 10.625 C0.44769531 9.48289063 0.08289063 8.34078125 -0.29296875 7.1640625 C-0.95860385 4.18525347 -1.07938697 2.79128097 0 0 Z " fill="#F5F4F4" transform="translate(101,239)"/>
<path d="M0 0 C0.33 0.99 0.66 1.98 1 3 C-3.29 7.62 -7.58 12.24 -12 17 C-12.99 16.67 -13.98 16.34 -15 16 C-14.50628906 15.51789063 -14.01257813 15.03578125 -13.50390625 14.5390625 C-12.86324219 13.90742187 -12.22257812 13.27578125 -11.5625 12.625 C-10.92441406 11.99851562 -10.28632813 11.37203125 -9.62890625 10.7265625 C-7.92117824 9.08276939 -7.92117824 9.08276939 -7 7 C-6.34 7 -5.68 7 -5 7 C-4.67 5.02 -4.34 3.04 -4 1 C-2.68 0.67 -1.36 0.34 0 0 Z " fill="#F8F6F6" transform="translate(397,81)"/>
<path d="M0 0 C2.97 0.495 2.97 0.495 6 1 C6 1.66 6 2.32 6 3 C7.98 3 9.96 3 12 3 C12 3.99 12 4.98 12 6 C13.175625 6.4640625 13.175625 6.4640625 14.375 6.9375 C17 8 17 8 19 9 C19 9.66 19 10.32 19 11 C15.30353456 10.28742835 12.27041037 8.71808019 8.9375 7 C5.95422725 5.46595616 3.18314372 4.06104791 0 3 C0 2.01 0 1.02 0 0 Z " fill="#F7F6F6" transform="translate(269,160)"/>
<path d="M0 0 C0.99 0 1.98 0 3 0 C2.50247891 5.84587284 0.91416125 10.87547493 -2 16 C-2.66 16.33 -3.32 16.66 -4 17 C-3.51421457 13.87709365 -3.0013988 11.00419641 -2 8 C-2.66 7.67 -3.32 7.34 -4 7 C-2.68 6.34 -1.36 5.68 0 5 C0 3.35 0 1.7 0 0 Z " fill="#F7F5F5" transform="translate(173,190)"/>
<path d="M0 0 C0.66 0 1.32 0 2 0 C2.8125 1.6875 2.8125 1.6875 3 4 C1.8586069 5.17496348 0.7036527 6.34012868 -0.51953125 7.4296875 C-3.38174765 10.46560041 -5.11075894 14.30995044 -7 18 C-7.33 18 -7.66 18 -8 18 C-7.84176499 10.87942468 -4.32702752 5.52620374 0 0 Z " fill="#F5F4F4" transform="translate(156,167)"/>
<path d="M0 0 C1 2 1 2 0.36328125 3.91796875 C-1.87923148 8.76146278 -4.26768109 13.41360755 -7 18 C-7.66 18 -8.32 18 -9 18 C-8.28400548 10.66105616 -4.6543182 5.48544645 0 0 Z " fill="#F6F5F4" transform="translate(88,146)"/>
<path d="M0 0 C0.33 0.99 0.66 1.98 1 3 C2.32 2.34 3.64 1.68 5 1 C3.80305384 5.9374029 0.72863565 8.24849167 -3.02734375 11.3515625 C-4.78915687 12.82381029 -6.40552216 14.35054016 -8 16 C-8.99 15.67 -9.98 15.34 -11 15 C-8.88606435 11.82909652 -8.20028339 11.6001417 -5 10 C-2.05133935 7.64107148 -1.11079355 6.48010537 -0.25 2.75 C-0.1675 1.8425 -0.085 0.935 0 0 Z " fill="#F7F6F6" transform="translate(315,322)"/>
<path d="M0 0 C0.66 0.99 1.32 1.98 2 3 C1.01 3.33 0.02 3.66 -1 4 C-0.69255859 4.84304688 -0.69255859 4.84304688 -0.37890625 5.703125 C0.11019913 8.66801124 -0.63744214 10.07109289 -1.9375 12.75 C-2.50791016 13.94882812 -2.50791016 13.94882812 -3.08984375 15.171875 C-3.39019531 15.77515625 -3.69054688 16.3784375 -4 17 C-4.66 17 -5.32 17 -6 17 C-5.51947285 11.35380599 -4.17262158 4.17262158 0 0 Z " fill="#F6F3F3" transform="translate(39,273)"/>
<path d="M0 0 C0 0.33 0 0.66 0 1 C-1.16917969 1.20496094 -2.33835938 1.40992188 -3.54296875 1.62109375 C-5.09115122 1.89319855 -6.639328 2.16533567 -8.1875 2.4375 C-8.95642578 2.57220703 -9.72535156 2.70691406 -10.51757812 2.84570312 C-14.35465574 3.52089704 -18.18399568 4.21232777 -22 5 C-21.67 4.01 -21.34 3.02 -21 2 C-14.35269131 -0.93718291 -7.12976199 -0.17799683 0 0 Z " fill="#F8F6F6" transform="translate(229,128)"/>
<path d="M0 0 C0.33 0 0.66 0 1 0 C1.09796875 0.85722656 1.1959375 1.71445312 1.296875 2.59765625 C2.17641379 9.32309509 3.09910991 14.4087242 7 20 C3.62670085 18.60415208 1.95767338 17.07634389 0 14 C-0.99293628 11.02119115 -1.13406411 8.98398802 -1.125 5.875 C-1.12757812 4.98554688 -1.13015625 4.09609375 -1.1328125 3.1796875 C-1 1 -1 1 0 0 Z " fill="#F6F5F5" transform="translate(18,331)"/>
<path d="M0 0 C0.66 0 1.32 0 2 0 C2.75 2.125 2.75 2.125 3 5 C1.69593116 7.01920337 0.36176581 9.01924973 -1 11 C-1.33709062 13.75258812 -1.33709062 13.75258812 -1 16 C-1.99 15.67 -2.98 15.34 -4 15 C-3.50341703 9.33895411 -2.45489316 5.12325529 0 0 Z " fill="#F6F5F5" transform="translate(24,310)"/>
<path d="M0 0 C-1 3 -1 3 -2.890625 3.94921875 C-10.75674619 6.41063747 -10.75674619 6.41063747 -15 6 C-15.33 5.34 -15.66 4.68 -16 4 C-12.7 3.34 -9.4 2.68 -6 2 C-6 1.34 -6 0.68 -6 0 C-3 -1 -3 -1 0 0 Z " fill="#F7F5F5" transform="translate(272,353)"/>
<path d="M0 0 C2.6875 0.3125 2.6875 0.3125 4.9375 1.875 C7.17092371 4.98584017 7.39730098 7.53991269 7.6875 11.3125 C7.3575 10.6525 7.0275 9.9925 6.6875 9.3125 C6.0275 9.3125 5.3675 9.3125 4.6875 9.3125 C3.2025 6.3425 3.2025 6.3425 1.6875 3.3125 C-0.2925 3.9725 -2.2725 4.6325 -4.3125 5.3125 C-3.21088129 0.43390288 -3.21088129 0.43390288 0 0 Z " fill="#F5F4F3" transform="translate(73.3125,265.6875)"/>
<path d="M0 0 C0.33 0.66 0.66 1.32 1 2 C2.89533342 2.46523063 2.89533342 2.46523063 5.0625 2.625 C6.361875 2.74875 7.66125 2.8725 9 3 C9.33 2.34 9.66 1.68 10 1 C10 1.66 10 2.32 10 3 C11.65 3 13.3 3 15 3 C15.33 3.66 15.66 4.32 16 5 C9.2718373 5.22262303 3.46008837 4.95021536 -3 3 C-3 2.34 -3 1.68 -3 1 C-2.01 0.67 -1.02 0.34 0 0 Z " fill="#F7F6F6" transform="translate(36,354)"/>
<path d="M0 0 C0.86882812 0.08378906 1.73765625 0.16757812 2.6328125 0.25390625 C3.78523437 0.35574219 4.93765625 0.45757812 6.125 0.5625 C7.83042969 0.71912109 7.83042969 0.71912109 9.5703125 0.87890625 C12.88897993 0.99608016 15.7562686 0.6655072 19 0 C19 0.99 19 1.98 19 3 C13.63709368 4.02693951 8.33661986 4.44792012 3 3 C1.234375 1.453125 1.234375 1.453125 0 0 Z " fill="#F7F4F4" transform="translate(201,293)"/>
<path d="M0 0 C0.33 0 0.66 0 1 0 C1.30017023 4.16486198 0.45324946 6.65015727 -1.5 10.3125 C-1.9640625 11.19550781 -2.428125 12.07851563 -2.90625 12.98828125 C-3.2671875 13.65214844 -3.628125 14.31601562 -4 15 C-4.66 15 -5.32 15 -6 15 C-5.39644592 11.14974121 -4.23227397 8.13898841 -2.4375 4.6875 C-1.98246094 3.80449219 -1.52742188 2.92148437 -1.05859375 2.01171875 C-0.53458984 1.01591797 -0.53458984 1.01591797 0 0 Z " fill="#F7F6F6" transform="translate(336,294)"/>
<path d="M0 0 C-2.21229599 2.54414039 -3.65126671 3.54746847 -7 4 C-9.67286275 4.07182357 -12.32490846 4.04458486 -15 4 C-15 3.34 -15 2.68 -15 2 C-13.43883181 1.66048381 -11.87598662 1.32867456 -10.3125 1 C-9.44238281 0.814375 -8.57226562 0.62875 -7.67578125 0.4375 C-5.06287036 0.01027953 -2.64186962 -0.07616201 0 0 Z " fill="#F7F6F6" transform="translate(352,89)"/>
<path d="M0 0 C0.99 0.33 1.98 0.66 3 1 C3.49230769 7.4 3.49230769 7.4 1 10.4375 C0.01 11.2109375 0.01 11.2109375 -1 12 C-1.33 10.68 -1.66 9.36 -2 8 C-1.34 8 -0.68 8 0 8 C0 5.36 0 2.72 0 0 Z " fill="#F4F3F3" transform="translate(408,58)"/>
<path d="M0 0 C5.73529412 5.29411765 5.73529412 5.29411765 6 9 C5 10 5 10 1.4375 10.0625 C0.303125 10.041875 -0.83125 10.02125 -2 10 C-2 9.34 -2 8.68 -2 8 C-0.35 8 1.3 8 3 8 C2.505 7.236875 2.01 6.47375 1.5 5.6875 C0 3 0 3 0 0 Z " fill="#F6F5F4" transform="translate(112,324)"/>
<path d="M0 0 C-0.9375 2 -0.9375 2 -3 4 C-6.02534949 4.36475845 -8.96663814 4.22893297 -12 4 C-12 3.34 -12 2.68 -12 2 C-10.75579353 1.4654744 -9.50429064 0.94791389 -8.25 0.4375 C-7.55390625 0.14746094 -6.8578125 -0.14257812 -6.140625 -0.44140625 C-3.69987216 -1.07831803 -2.3596345 -0.80248831 0 0 Z " fill="#F8F7F7" transform="translate(268,330)"/>
<path d="M0 0 C1.32 0.33 2.64 0.66 4 1 C4.103125 1.763125 4.20625 2.52625 4.3125 3.3125 C5.05600892 6.21894395 5.84858032 7.03566029 8 9 C8 9.66 8 10.32 8 11 C7.01 11 6.02 11 5 11 C3.61328125 9.35546875 3.61328125 9.35546875 2.3125 7.1875 C1.87550781 6.47980469 1.43851562 5.77210938 0.98828125 5.04296875 C0 3 0 3 0 0 Z " fill="#F6F5F4" transform="translate(88,290)"/>
<path d="M0 0 C1.1875 1.5 1.1875 1.5 2 4 C1.27101296 6.78824238 0.1843275 9.37665092 -1 12 C-2.32 11.67 -3.64 11.34 -5 11 C-4.35474023 9.5414128 -3.7087728 8.08313863 -3.0625 6.625 C-2.70285156 5.81289063 -2.34320313 5.00078125 -1.97265625 4.1640625 C-1.3430097 2.76316215 -0.68687358 1.37374716 0 0 Z " fill="#F7F5F5" transform="translate(342,279)"/>
<path d="M0 0 C4.29 0.66 8.58 1.32 13 2 C12 4 12 4 11 5 C7.27775401 5.29386153 6.22213757 5.14809171 3 3 C2.01 2.01 1.02 1.02 0 0 Z " fill="#F8F7F6" transform="translate(204,335)"/>
<path d="M0 0 C1.32 0.66 2.64 1.32 4 2 C0.71508627 4.18994248 -0.83095639 4.35277339 -4.6875 4.625 C-6.17830078 4.73714844 -6.17830078 4.73714844 -7.69921875 4.8515625 C-8.45847656 4.90054687 -9.21773437 4.94953125 -10 5 C-9 3 -9 3 -5.5625 1.8125 C-2 1 -2 1 0 2 C0 1.34 0 0.68 0 0 Z " fill="#F7F5F4" transform="translate(231,291)"/>
<path d="M0 0 C0.66 0 1.32 0 2 0 C1.21824485 4.84688192 -0.39844278 9.3766367 -2 14 C-2.33 14 -2.66 14 -3 14 C-2.88512252 12.41590006 -2.75765492 10.83271037 -2.625 9.25 C-2.55539063 8.36828125 -2.48578125 7.4865625 -2.4140625 6.578125 C-2.00149945 4.00933618 -1.28839043 2.24158985 0 0 Z " fill="#F4F2F2" transform="translate(62,205)"/>
<path d="M0 0 C0.33 0.66 0.66 1.32 1 2 C6.445 1.505 6.445 1.505 12 1 C12 1.66 12 2.32 12 3 C7.38 3.33 2.76 3.66 -2 4 C-1.34 2.68 -0.68 1.36 0 0 Z " fill="#F8F7F7" transform="translate(199,95)"/>
<path d="M0 0 C0.68707555 2.49064888 1 4.37886292 1 7 C0.34 7 -0.32 7 -1 7 C-1.66 8.98 -2.32 10.96 -3 13 C-4.60080151 8.99799622 -3.29279692 5.95443764 -2 2 C-1.34 2 -0.68 2 0 2 C0 1.34 0 0.68 0 0 Z " fill="#F5F3F3" transform="translate(32,291)"/>
<path d="M0 0 C2 0 2 0 4.0625 1.75 C6.0222355 4.02582187 6.42973103 5.14865515 7 8 C7.66 8.66 8.32 9.32 9 10 C5.54537888 9.74410214 4.72618453 8.71373837 2.25 6.125 C0 3 0 3 0 0 Z " fill="#F5F4F4" transform="translate(154,258)"/>
<path d="M0 0 C2.08304538 -0.05418326 4.16649768 -0.09287551 6.25 -0.125 C7.99023438 -0.15980469 7.99023438 -0.15980469 9.765625 -0.1953125 C12.82786046 -0.0103949 14.44202751 0.39176977 17 2 C16.67 2.66 16.34 3.32 16 4 C15.43152344 3.86722656 14.86304688 3.73445312 14.27734375 3.59765625 C9.52848903 2.5115242 4.83219676 1.61687618 0 1 C0 0.67 0 0.34 0 0 Z " fill="#F6F5F5" transform="translate(243,128)"/>
<path d="M0 0 C1.32 0.33 2.64 0.66 4 1 C4.66 4.3 5.32 7.6 6 11 C1.9957657 7.50912907 0.37328935 5.35048061 0 0 Z " fill="#F4F3F2" transform="translate(148,246)"/>
<path d="M0 0 C0.33 1.32 0.66 2.64 1 4 C0.01 4.33 -0.98 4.66 -2 5 C-2 5.66 -2 6.32 -2 7 C-2.99 7.66 -3.98 8.32 -5 9 C-5.99 8.67 -6.98 8.34 -8 8 C-6.71937515 6.2925002 -5.38232443 4.62626404 -4 3 C-3.34 3 -2.68 3 -2 3 C-1.34 2.01 -0.68 1.02 0 0 Z " fill="#F8F6F6" transform="translate(150,116)"/>
<path d="M0 0 C0.66 0.99 1.32 1.98 2 3 C-0.75 8.875 -0.75 8.875 -3 10 C-3.36923077 4.58461538 -3.36923077 4.58461538 -1.5 1.625 C-1.005 1.08875 -0.51 0.5525 0 0 Z " fill="#F5F3F3" transform="translate(67,194)"/>
<path d="M0 0 C4.83256305 0.41421969 6.82679218 2.46413986 10 6 C9.05125 5.814375 8.1025 5.62875 7.125 5.4375 C4.10131207 4.71313368 4.10131207 4.71313368 2 6 C1.34 4.02 0.68 2.04 0 0 Z " fill="#F8F7F7" transform="translate(290,143)"/>
<path d="M0 0 C1.79379098 0.44994757 3.58498928 0.91024143 5.375 1.375 C6.37273437 1.63023438 7.37046875 1.88546875 8.3984375 2.1484375 C11 3 11 3 13 5 C11.58217855 4.93940934 10.16555534 4.85045877 8.75 4.75 C7.56664062 4.68039063 7.56664062 4.68039063 6.359375 4.609375 C3.32101328 3.82463257 2.03158688 2.32980147 0 0 Z " fill="#F5F4F4" transform="translate(311,110)"/>
<path d="M0 0 C0.99 0 1.98 0 3 0 C3 0.66 3 1.32 3 2 C5.31 2 7.62 2 10 2 C10 2.99 10 3.98 10 5 C3.375 4.25 3.375 4.25 0 2 C0 1.34 0 0.68 0 0 Z " fill="#F5F3F3" transform="translate(184,286)"/>
<path d="M0 0 C2.86697492 1.28519565 4.97607712 2.57129254 7 5 C7 5.66 7 6.32 7 7 C4.03 6.505 4.03 6.505 1 6 C0.67 4.02 0.34 2.04 0 0 Z " fill="#F6F5F4" transform="translate(178,253)"/>
<path d="M0 0 C2.97 0.495 2.97 0.495 6 1 C6.33 1.99 6.66 2.98 7 4 C6.34 4.66 5.68 5.32 5 6 C5 5.34 5 4.68 5 4 C3.35 3.67 1.7 3.34 0 3 C0 2.01 0 1.02 0 0 Z " fill="#F8F7F6" transform="translate(162,321)"/>
<path d="M0 0 C0.33 0 0.66 0 1 0 C1.125 7.625 1.125 7.625 0 11 C-0.66 11 -1.32 11 -2 11 C-1.85892253 9.54119891 -1.71197585 8.08296449 -1.5625 6.625 C-1.48128906 5.81289063 -1.40007812 5.00078125 -1.31640625 4.1640625 C-1 2 -1 2 0 0 Z " fill="#F6F5F5" transform="translate(346,264)"/>
<path d="M0 0 C1.36125 0.7115625 1.36125 0.7115625 2.75 1.4375 C5.26427949 2.64628821 7.29568209 3.47993886 10 4 C10 4.66 10 5.32 10 6 C5.87248551 5.39301257 2.6678852 3.96189209 -1 2 C-0.67 1.34 -0.34 0.68 0 0 Z " fill="#F5F3F3" transform="translate(326,114)"/>
<path d="M0 0 C3.5786304 1.65167557 6.74820188 3.78286492 10 6 C9.01 6.33 8.02 6.66 7 7 C5.17578125 6.07421875 5.17578125 6.07421875 3.3125 4.6875 C2.37857422 4.01267578 2.37857422 4.01267578 1.42578125 3.32421875 C0.95527344 2.88722656 0.48476562 2.45023437 0 2 C0 1.34 0 0.68 0 0 Z " fill="#F5F4F4" transform="translate(173,279)"/>
<path d="M0 0 C0 0.66 0 1.32 0 2 C-3.50776784 3.60355101 -6.14354879 4.22036864 -10 4 C-7.18342017 0.590456 -4.32639749 0 0 0 Z " fill="#F6F4F3" transform="translate(187,101)"/>
<path d="M0 0 C0.99 0.33 1.98 0.66 3 1 C4.1875 3.5625 4.1875 3.5625 5 6 C2.97954558 5.39816251 0.97888961 4.72693904 -1 4 C-1.33 3.34 -1.66 2.68 -2 2 C-1.34 2 -0.68 2 0 2 C0 1.34 0 0.68 0 0 Z " fill="#F8F6F6" transform="translate(332,185)"/>
<path d="M0 0 C3.96 0 7.92 0 12 0 C10.515 1.485 10.515 1.485 9 3 C6.73828125 2.85546875 6.73828125 2.85546875 4.3125 2.1875 C3.50425781 1.97480469 2.69601562 1.76210937 1.86328125 1.54296875 C0.94095703 1.27419922 0.94095703 1.27419922 0 1 C0 0.67 0 0.34 0 0 Z " fill="#F4F1F1" transform="translate(338,120)"/>
<path d="M0 0 C3.75376152 1.25125384 4.24073289 2.5652404 6 6 C6 6.66 6 7.32 6 8 C4.125 7.375 4.125 7.375 2 6 C0.75 2.875 0.75 2.875 0 0 Z " fill="#F5F4F4" transform="translate(97,304)"/>
<path d="M0 0 C-3.75 2 -3.75 2 -6 2 C-6.66 3.65 -7.32 5.3 -8 7 C-8.6875 5.1875 -8.6875 5.1875 -9 3 C-6.75886401 -0.69128281 -4.00118708 -0.26674581 0 0 Z " fill="#F5F3F3" transform="translate(254,195)"/>
<path d="M0 0 C2.5 2.3125 2.5 2.3125 5 5 C5 5.99 5 6.98 5 8 C2 7 2 7 0.3125 3.9375 C-0.120625 2.968125 -0.55375 1.99875 -1 1 C-0.67 0.67 -0.34 0.34 0 0 Z " fill="#F7F6F6" transform="translate(326,174)"/>
<path d="M0 0 C0.763125 0.20625 1.52625 0.4125 2.3125 0.625 C-0.6875 2.625 -0.6875 2.625 -3.6875 2.625 C-4.0175 3.285 -4.3475 3.945 -4.6875 4.625 C-5.3475 4.625 -6.0075 4.625 -6.6875 4.625 C-5.39900677 0.7595203 -4.17039106 -0.58191503 0 0 Z " fill="#F6F4F5" transform="translate(367.6875,78.375)"/>
<path d="M0 0 C1.4800841 0.11362262 2.95910074 0.24122908 4.4375 0.375 C5.26121094 0.44460937 6.08492187 0.51421875 6.93359375 0.5859375 C7.95646484 0.79089844 7.95646484 0.79089844 9 1 C9.33 1.66 9.66 2.32 10 3 C3.375 3.125 3.375 3.125 0 2 C0 1.34 0 0.68 0 0 Z " fill="#F7F5F5" transform="translate(237,72)"/>
<path d="M0 0 C4.875 1.75 4.875 1.75 6 4 C4.02 4.33 2.04 4.66 0 5 C0 3.33333333 0 1.66666667 0 0 Z " fill="#F7F6F5" transform="translate(150,313)"/>
<path d="M0 0 C0.99 0.33 1.98 0.66 3 1 C3 3.64 3 6.28 3 9 C2.67 8.34 2.34 7.68 2 7 C1.34 7 0.68 7 0 7 C0 4.69 0 2.38 0 0 Z " fill="#F4F2F2" transform="translate(246,206)"/>
<path d="M0 0 C0.66 0 1.32 0 2 0 C2 1.65 2 3.3 2 5 C1.01 5.495 1.01 5.495 0 6 C-0.66 6.99 -1.32 7.98 -2 9 C-1.125 2.25 -1.125 2.25 0 0 Z " fill="#F5F4F3" transform="translate(76,167)"/>
<path d="M0 0 C6.75 -0.125 6.75 -0.125 9 1 C8.67 1.99 8.34 2.98 8 4 C5.36 3.01 2.72 2.02 0 1 C0 0.67 0 0.34 0 0 Z " fill="#F7F6F6" transform="translate(261,131)"/>
<path d="M0 0 C0.99 0.99 1.98 1.98 3 3 C-0.875 6 -0.875 6 -2 6 C-2 4.35 -2 2.7 -2 1 C-1.34 0.67 -0.68 0.34 0 0 Z " fill="#F6F5F3" transform="translate(147,186)"/>
<path d="M0 0 C1.98 0.99 3.96 1.98 6 3 C6 3.66 6 4.32 6 5 C4.68 5 3.36 5 2 5 C2 4.34 2 3.68 2 3 C1.01 2.67 0.02 2.34 -1 2 C-0.67 1.34 -0.34 0.68 0 0 Z " fill="#F8F7F7" transform="translate(282,137)"/>
</svg>
